<svg id="visual" viewBox="0 0 900 600" width="900" height="600" xmlns="http://www.w3.org/2000/svg" xmlns:xlink="http://www.w3.org/1999/xlink" version="1.1"><rect x="0" y="0" width="900" height="600" fill="#f8f8f8"></rect><path d="M0 168L21.5 170C43 172 86 176 128.8 199.5C171.7 223 214.3 266 257.2 265.7C300 265.3 343 221.7 385.8 204.7C428.7 187.7 471.3 197.3 514.2 193.3C557 189.3 600 171.7 642.8 168.7C685.7 165.7 728.3 177.3 771.2 197.8C814 218.3 857 247.7 878.5 262.3L900 277L900 0L878.5 0C857 0 814 0 771.2 0C728.3 0 685.7 0 642.8 0C600 0 557 0 514.2 0C471.3 0 428.7 0 385.8 0C343 0 300 0 257.2 0C214.3 0 171.7 0 128.8 0C86 0 43 0 21.5 0L0 0Z" fill="#02c39a" stroke-linecap="round" stroke-linejoin="miter"></path></svg>